<?xml version="1.0" ?><svg data-name="Layer 1" id="Layer_1" viewBox="0 0 512 512" xmlns="http://www.w3.org/2000/svg"><title/><path d="M263.8,181.51a5.76,5.76,0,0,0-5.76,5.76v20a5.77,5.77,0,0,0,11.53,0v-20A5.76,5.76,0,0,0,263.8,181.51Z"/><path d="M266.27,232.07a5.82,5.82,0,0,0-7.68,2.71c-.28.58-7.19,14.19-30.18,14.19s-29.91-13.61-30.16-14.14a5.77,5.77,0,0,0-10.48,4.84c.39.85,10,20.83,40.64,20.83s40.24-20,40.63-20.84A5.73,5.73,0,0,0,266.27,232.07Z"/><path d="M404.79,350.88c-.3-.21-30-21.75,2.54-142.11,23.18-85.74,9-128.64-7-149.54-11.83-15.45-29-24.31-47.16-24.31A108.36,108.36,0,0,0,293.9,53a127,127,0,0,0-65.49-18.11c-70.45,0-127.77,57.33-127.77,127.79v49.14A127.85,127.85,0,0,0,164.9,322.69c-20,15.95-72.42,64.56-72.42,137.18a5.77,5.77,0,0,0,11.53,0c0-23.62,6.22-44.68,15.06-62.7l24.51,12.66v50a5.77,5.77,0,0,0,11.53,0V406.32A5.74,5.74,0,0,0,152,401.2L124.49,387c18.39-31.79,43.69-52.38,51.81-58.49a126.11,126.11,0,0,0,23.95,8l-.71,8.46c-1,12.49,3.56,21,15.24,27.64l-17.84,73.25a5.79,5.79,0,0,0,1.91,5.8l29,24.1a5.75,5.75,0,0,0,7.38,0l28.95-24.1a5.75,5.75,0,0,0,1.91-5.8L248.2,372.59c11.68-6.68,16.26-15.16,15.23-27.64l-.83-10a126.55,126.55,0,0,0,21.66-8.22c2.8,1.95,33.11,23.64,54.25,60.23L311,401.2a5.74,5.74,0,0,0-3.12,5.12v53.55a5.77,5.77,0,0,0,11.53,0v-50l24.53-12.67c8.82,18,15,39.07,15,62.71a5.77,5.77,0,0,0,11.53,0c0-76.13-57.57-125.88-75.08-139.26a128.71,128.71,0,0,0,29.31-24.87c12.25,58.25,75.75,65.7,76.45,65.77a3.76,3.76,0,0,0,.58,0,5.7,5.7,0,0,0,5.35-3.85A5.85,5.85,0,0,0,404.79,350.88ZM228.41,46.46a115.56,115.56,0,0,1,62.34,18.17c.2.14.4.27.61.39a116.25,116.25,0,0,1,53.3,97.69v18.62a67.22,67.22,0,0,1-48.23-25.89l-19.49-25.36a5.31,5.31,0,0,0-4.77-2.24,5.76,5.76,0,0,0-4.61,2.58l-13.91,21.09a66.56,66.56,0,0,1-55.72,30H112.17v-18.8A116.37,116.37,0,0,1,228.41,46.46ZM254,445.08l-22.49,18.73L209,445.08l17-69.75h11Zm-2-99.17c.63,7.6-1,12.54-11.72,17.89H222.78c-10.7-5.35-12.38-10.29-11.74-17.88l.62-7.39a128.75,128.75,0,0,0,16.75,1.1,127.1,127.1,0,0,0,22.82-2.05ZM228.41,328.1a115.62,115.62,0,0,1-49.71-11.18,6.12,6.12,0,0,0-1.06-.52,116.37,116.37,0,0,1-65.47-104.55V193h75.07v14.23a5.77,5.77,0,0,0,11.53,0V193a78.13,78.13,0,0,0,64.52-35.17l9.45-14.33,14.56,18.94a79,79,0,0,0,57.36,30.36v19A116.39,116.39,0,0,1,228.41,328.1ZM334.51,283a127.05,127.05,0,0,0,21.68-71.12V162.71A127.67,127.67,0,0,0,304.42,60.06c9-5.34,26.63-13.6,48.74-13.6,14.52,0,28.37,7.21,38,19.79,14.41,18.82,27,58.31,5,139.51C373.52,289.61,379.78,329,388,346.89,369.1,341.09,337.9,325.16,334.51,283Z"/></svg>